<mxfile host="app.diagrams.net" modified="2024-07-22T05:23:54.866Z" agent="Mozilla/5.0 (Windows NT 10.0; Win64; x64) AppleWebKit/537.36 (KHTML, like Gecko) Chrome/126.0.0.0 Safari/537.36" version="24.7.1" etag="Xcr8-3M2cpcnyow-Qzss" type="github">
  <diagram name="第 1 页" id="e1mV_mPYXl2E8HDuxz8c">
    <mxGraphModel>
      <root>
        <mxCell id="0" />
        <mxCell id="1" parent="0" />
      </root>
    </mxGraphModel>
  </diagram>
</mxfile>
